<svg xmlns="http://www.w3.org/2000/svg" viewBox="0 0 160 160"><defs><linearGradient id="g" x1="0" y1="0" x2="1" y2="1"><stop stop-color="#173b6d"/><stop offset="1" stop-color="#6d89b6"/></linearGradient></defs><rect width="160" height="160" rx="80" fill="url(#g)"/><circle cx="80" cy="67" r="31" fill="#d7a77d"/><path d="M49 66c0-26 16-43 32-43 20 0 31 14 32 37-7-7-16-12-26-12-12 0-22 7-31 18z" fill="#2b2230"/><circle cx="69" cy="69" r="3" fill="#173b6d"/><circle cx="91" cy="69" r="3" fill="#173b6d"/><path d="M72 84c5 4 11 4 16 0" fill="none" stroke="#8b4f4f" stroke-width="3" stroke-linecap="round"/><path d="M39 146c4-29 21-43 41-43s37 14 41 43" fill="#e4d2b8"/><path d="M58 108c7 8 15 12 22 12s15-4 22-12" fill="#f3e7d4"/></svg>
